<svg xmlns="http://www.w3.org/2000/svg" viewBox="0 0 25 25"><g data-name="Layer 2"><path d="M20 0H5a5 5 0 0 0-5 5v15a5 5 0 0 0 5 5h15a5 5 0 0 0 5-5V5a5 5 0 0 0-5-5zm-3.74 24.17c-.61.12-.82-.26-.82-.57v-3.29a2.88 2.88 0 0 0-.81-2.22c2.67-.29 5.48-1.31 5.48-5.92A4.67 4.67 0 0 0 18.89 9a4.42 4.42 0 0 0-.12-3.18s-1-.32-3.29 1.23a12 12 0 0 0-3-.4 12 12 0 0 0-3 .4c-2.29-1.55-3.3-1.23-3.3-1.23A4.26 4.26 0 0 0 6.08 9a4.63 4.63 0 0 0-1.24 3.22c0 4.6 2.81 5.63 5.47 5.93a2.59 2.59 0 0 0-.76 1.61 2.56 2.56 0 0 1-3.49-1 2.55 2.55 0 0 0-1.84-1.24s-1.17 0-.09.73A3.19 3.19 0 0 1 5.47 20s.7 2.33 4 1.61v2c0 .25-.21.69-.82.57a12 12 0 1 1 7.56 0z" fill="#e6e6e6" data-name="Layer 1"/></g></svg>