<svg xmlns="http://www.w3.org/2000/svg" viewBox="0 0 67.44 37.17"><defs><style>.cls-1{fill:#e6e6e6}</style></defs><g id="Layer_2" data-name="Layer 2"><g id="Layer_1-2" data-name="Layer 1"><path class="cls-1" d="M36 17.63c0 6 3.3 6.85 6.26 6.85a50.31 50.31 0 0 0 7.11-.68 50.54 50.54 0 0 1 7-.68c7.79 0 11.09 5.08 11.09 12.28v1.77h-4.68v-1.52c0-5-2.71-6.69-7.27-6.69a36.86 36.86 0 0 0-6 .6 40.55 40.55 0 0 1-6.43.59c-5.42.08-8.13-2.29-9.14-6.1h-.17c-.93 3.81-3.81 6.18-9.22 6.1a39.48 39.48 0 0 1-6.43-.59A38 38 0 0 0 12 29c-4.74 0-7.37 1.95-7.37 6.69v1.52H0V35.4c0-7 3.05-12.28 11.59-12.28a49.27 49.27 0 0 1 6.94.68 46.75 46.75 0 0 0 6.85.68c2.63 0 6.26-.85 6.26-6.85z"/><circle class="cls-1" cx="50.48" cy="6" r="6"/></g></g></svg>